<svg width="32" height="32" viewBox="0 0 32 32" fill="none" xmlns="http://www.w3.org/2000/svg">
<path d="M15.134 1.5C15.5189 0.833334 16.4811 0.833333 16.866 1.5L28.9904 22.5C29.3753 23.1667 28.8942 24 28.1244 24H3.87565C3.10584 24 2.62472 23.1667 3.00962 22.5L15.134 1.5Z" fill="#EB5757"/>
<path d="M16.9165 16.5877H15.4487L15.3345 7.40312H17.0396L16.9165 16.5877ZM15.2729 19.3826C15.2729 19.1189 15.3521 18.8992 15.5103 18.7234C15.6743 18.5418 15.9146 18.451 16.231 18.451C16.5474 18.451 16.7876 18.5418 16.9517 18.7234C17.1157 18.8992 17.1978 19.1189 17.1978 19.3826C17.1978 19.6463 17.1157 19.866 16.9517 20.0418C16.7876 20.2117 16.5474 20.2967 16.231 20.2967C15.9146 20.2967 15.6743 20.2117 15.5103 20.0418C15.3521 19.866 15.2729 19.6463 15.2729 19.3826Z" fill="white"/>
</svg>
